<?xml version="1.0" standalone="no"?>
<!DOCTYPE svg PUBLIC "-//W3C//DTD SVG 20010904//EN"
 "http://www.w3.org/TR/2001/REC-SVG-20010904/DTD/svg10.dtd">
<svg version="1.0" xmlns="http://www.w3.org/2000/svg"
 width="512.000000pt" height="512.000000pt" viewBox="0 0 512.000000 512.000000"
 preserveAspectRatio="xMidYMid meet">

<g transform="translate(0.000000,512.000000) scale(0.100000,-0.100000)"
fill="#000000" stroke="none">
<path d="M3838 4273 l-296 -296 -99 40 c-288 120 -535 166 -873 166 -212 0
-327 -10 -491 -43 -597 -121 -1077 -470 -1447 -1052 -100 -157 -220 -388 -238
-456 -22 -90 -12 -142 53 -275 145 -295 331 -565 527 -765 l91 -92 -259 -259
c-225 -225 -258 -262 -253 -283 10 -37 219 -238 248 -238 18 0 430 406 1807
1783 1005 1005 1785 1792 1789 1806 5 19 -12 41 -113 142 -65 65 -126 119
-134 119 -8 0 -149 -133 -312 -297z m-1077 -454 c57 -5 149 -19 204 -29 105
-21 295 -77 295 -89 0 -3 -76 -82 -169 -175 l-169 -169 -95 31 c-423 141 -870
-41 -1067 -433 -112 -222 -128 -448 -48 -683 l32 -93 -211 -211 -211 -211 -29
21 c-38 27 -182 193 -263 302 -71 97 -162 246 -236 384 l-47 89 37 76 c176
357 437 680 707 873 346 248 811 364 1270 317z m-103 -713 c3 -4 -143 -156
-326 -338 -182 -183 -335 -329 -339 -324 -4 4 -8 56 -8 114 0 125 23 205 84
299 115 175 292 268 494 259 48 -2 91 -7 95 -10z"/>
<path d="M3931 3486 l-124 -124 81 -84 c104 -106 175 -195 266 -333 80 -119
203 -337 212 -372 4 -16 -11 -54 -48 -125 -352 -664 -810 -1030 -1418 -1133
-132 -23 -429 -31 -560 -16 -142 17 -276 45 -389 82 l-94 31 -133 -133 c-74
-74 -134 -136 -134 -139 0 -16 276 -115 405 -145 390 -93 846 -84 1223 25 357
104 645 281 927 572 204 209 363 438 512 734 78 155 78 155 78 234 0 79 0 80
-78 232 -140 277 -304 516 -487 711 -56 59 -105 107 -108 107 -4 0 -63 -56
-131 -124z"/>
<path d="M3220 2775 l-123 -123 2 -75 c5 -155 -57 -308 -168 -417 -108 -106
-243 -160 -406 -160 l-80 0 -125 -125 -124 -124 39 -17 c66 -27 215 -54 305
-54 163 0 348 55 485 145 77 50 200 173 250 250 121 185 171 429 130 641 -16
86 -42 171 -54 178 -4 3 -63 -51 -131 -119z"/>
</g>
</svg>
