<?xml version="1.0" standalone="no"?>
<!DOCTYPE svg PUBLIC "-//W3C//DTD SVG 20010904//EN"
 "http://www.w3.org/TR/2001/REC-SVG-20010904/DTD/svg10.dtd">
<svg version="1.0" xmlns="http://www.w3.org/2000/svg"
 width="15" height="15" viewBox="0 0 416.000000 416.000000"
 preserveAspectRatio="xMidYMid meet">

<g transform="translate(0.000000,416.000000) scale(0.100000,-0.100000)"
fill="#000000" stroke="none">
<path d="M2685 3068 c-44 -16 -45 -17 -148 -166 -188 -273 -347 -541 -497
-842 -92 -183 -199 -417 -214 -467 -4 -13 -10 -23 -14 -23 -4 0 -22 28 -41 63
-51 94 -153 244 -216 319 -44 54 -65 70 -98 79 -56 15 -165 6 -213 -17 -59
-29 -58 -58 7 -136 91 -109 180 -255 309 -508 143 -281 143 -280 266 -288 55
-3 86 0 119 12 49 19 39 0 132 256 173 477 439 989 764 1470 66 97 119 183
119 191 0 23 -29 45 -75 58 -50 14 -160 13 -200 -1z"/>
</g>
</svg>
